<svg width="51" height="51" viewBox="0 0 51 51" fill="none" xmlns="http://www.w3.org/2000/svg">
<path fill-rule="evenodd" clip-rule="evenodd" d="M20.6769 31.6139C14.5447 31.6139 9.57363 26.6428 9.57363 20.5106C9.57363 14.3785 14.5447 9.40737 20.6769 9.40737C26.8091 9.40737 31.7802 14.3785 31.7802 20.5106C31.7802 26.6428 26.8091 31.6139 20.6769 31.6139ZM5.13232 20.5106C5.13232 11.9256 12.0919 4.96606 20.6769 4.96606C29.2619 4.96606 36.2215 11.9256 36.2215 20.5106C36.2215 23.9171 35.1257 27.0676 33.2675 29.629C34.6764 29.3454 36.1963 29.7497 37.2887 30.8421L45.5792 39.1326C47.3136 40.867 47.3136 43.6791 45.5792 45.4135C43.8447 47.148 41.0327 47.148 39.2982 45.4135L31.0078 37.1231C29.9153 36.0306 29.511 34.5106 29.7947 33.1016C27.2334 34.9596 24.0831 36.0552 20.6769 36.0552C12.0919 36.0552 5.13232 29.0957 5.13232 20.5106Z" fill="white"/>
</svg>
